<?xml version="1.0" encoding="UTF-8"?><svg id="icons-expand" xmlns="http://www.w3.org/2000/svg" viewBox="0 0 689 288"><defs><style>.cls-1,.cls-2{fill:#212429;}.cls-1,.cls-3{fill-rule:evenodd;}</style></defs><g><path class="cls-1" d="M107,1c-6.08,0-11,4.92-11,11s4.92,11,11,11,11-4.92,11-11-4.92-11-11-11Zm0,20c-4.97,0-9-4.03-9-9s4.03-9,9-9,9,4.03,9,9-4.03,9-9,9Z"/><path class="cls-1" d="M107.6,6.05c-.93-.16-1.89,.02-2.7,.49-.81,.48-1.43,1.23-1.75,2.12-.18,.52,.09,1.09,.61,1.28,.52,.18,1.09-.09,1.28-.61,.16-.45,.47-.82,.87-1.06,.41-.24,.89-.33,1.35-.25,.47,.08,.89,.32,1.19,.68s.47,.82,.47,1.29h0c0,.47-.36,.96-1.05,1.42-.31,.21-.64,.37-.88,.48-.12,.05-.22,.09-.29,.12-.03,.01-.06,.02-.07,.03h-.02c-.52,.18-.81,.75-.63,1.27,.17,.52,.74,.81,1.27,.63l-.32-.95q.32,.95,.32,.95h0s0,0,0,0h.01s.03-.02,.03-.02c.03-.01,.07-.02,.12-.04,.1-.04,.23-.09,.39-.16,.32-.14,.74-.35,1.18-.64,.81-.54,1.95-1.55,1.95-3.08,0-.94-.33-1.86-.94-2.58-.61-.72-1.45-1.21-2.38-1.37Z"/><path class="cls-1" d="M107,15c-.55,0-1,.45-1,1v.5c0,.55,.45,1,1,1s1-.45,1-1v-.5c0-.55-.45-1-1-1Z"/></g><g><polygon class="cls-2" points="305.99 191.75 305.99 191.75 305.99 191.75 305.99 191.75"/><polygon class="cls-2" points="293.25 179.01 293.25 179.01 293.25 179.01 293.25 179.01"/><path class="cls-2" d="M307,186.94c-.13-2.33-1.11-4.53-2.76-6.18-1.65-1.65-3.85-2.63-6.18-2.76h-.06s-.49,0-.49,0h-.03c-1.47,0-2.92,.34-4.23,1.01-1.58,.79-2.9,2-3.83,3.5-.93,1.5-1.42,3.22-1.42,4.98h0s0,.01,0,.01h0v.02c0,1.32,.29,2.62,.83,3.83l-1.78,5.34c-.12,.36-.03,.75,.24,1.02s.66,.36,1.02,.24l5.34-1.78c1.2,.54,2.5,.83,3.83,.83h.02c1.76,0,3.49-.49,4.99-1.42,1.5-.93,2.71-2.25,3.5-3.83,.66-1.31,1.01-2.76,1.01-4.23v-.57Zm-2,.57c0,1.16-.27,2.3-.79,3.33h0c-.62,1.25-1.58,2.3-2.76,3.03-1.18,.73-2.55,1.12-3.94,1.12h-.02c-1.16,0-2.3-.27-3.33-.79-.24-.12-.51-.14-.77-.06l-3.8,1.27,1.27-3.8c.08-.25,.06-.53-.06-.77-.52-1.03-.79-2.17-.79-3.33h0s0-.02,0-.02c0-1.39,.39-2.76,1.12-3.94,.73-1.19,1.78-2.14,3.03-2.76h0c1.03-.52,2.17-.79,3.33-.79h.02s.46,0,.46,0c1.83,.1,3.56,.88,4.86,2.18,1.3,1.3,2.07,3.03,2.18,4.86v.48Z"/></g><path class="cls-1" d="M23.5,177.14c-.31-.18-.69-.18-1,0l-6.54,3.73-7.52-3.76s-.02,0-.04-.01c-.02,0-.04-.02-.07-.02-.1-.04-.21-.06-.32-.06-.01,0-.02,0-.03,0,0,0,0,0-.01,0-.12,0-.23,.03-.34,.07-.03,0-.05,.02-.07,.03-.02,.01-.05,.02-.07,.03l-7,4c-.31,.18-.5,.51-.5,.87v16c0,.36,.19,.69,.5,.86,.31,.18,.69,.18,1,0l6.54-3.73,7.52,3.76s.02,0,.04,.01c.02,0,.04,.02,.07,.02,.1,.04,.21,.06,.32,.06,.01,0,.02,0,.03,0,0,0,0,0,.01,0,.12,0,.23-.03,.34-.07,.03,0,.05-.02,.07-.03,.02-.01,.05-.02,.07-.03l7-4c.31-.18,.5-.51,.5-.87v-16c0-.36-.19-.69-.5-.86Zm-14.5,2.48l6,3v13.76l-6-3v-13.76Zm-7,2.96l5-2.86v13.7l-5,2.86v-13.7Zm20,10.84l-5,2.86v-13.7l5-2.86v13.7Z"/><g><path class="cls-1" d="M493,97c-.55,0-1,.45-1,1v10c0,.55,.45,1,1,1s1-.45,1-1v-10c0-.55-.45-1-1-1Z"/><path class="cls-1" d="M487,91c-.55,0-1,.45-1,1v16c0,.55,.45,1,1,1s1-.45,1-1v-16c0-.55-.45-1-1-1Z"/><path class="cls-1" d="M481,101c-.55,0-1,.45-1,1v6c0,.55,.45,1,1,1s1-.45,1-1v-6c0-.55-.45-1-1-1Z"/></g><path class="cls-1" d="M401,179h-18c-1.66,0-3,1.34-3,3v12c0,1.66,1.34,3,3,3h18c1.66,0,3-1.34,3-3v-12c0-1.66-1.34-3-3-3Zm-18,2h18c.55,0,1,.45,1,1v3h-20v-3c0-.55,.45-1,1-1Zm18,14h-18c-.55,0-1-.45-1-1v-7h20v7c0,.55-.45,1-1,1Z"/><g><path class="cls-1" d="M582.55,23.83l-.55-.83q-.55,.83-.55,.83c.34,.22,.77,.22,1.11,0Z"/><path class="cls-1" d="M589.07,2.93c-1.88-1.88-4.42-2.93-7.07-2.93s-5.2,1.05-7.07,2.93-2.93,4.42-2.93,7.07c0,3.9,2.48,7.4,4.77,9.81,1.17,1.23,2.33,2.23,3.2,2.92,.43,.35,.8,.62,1.06,.8,.13,.09,.23,.16,.3,.21,.03,.02,.06,.04,.08,.06l.02,.02h0s0,0,0,0l.55-.83q.55,.83,.56,.83h0s0,0,0,0l.02-.02s.05-.03,.08-.06c.07-.05,.17-.12,.3-.21,.26-.19,.62-.46,1.06-.8,.87-.69,2.03-1.69,3.2-2.92,2.29-2.42,4.77-5.91,4.77-9.81,0-2.65-1.05-5.2-2.93-7.07Zm-3.3,15.51c-1.08,1.14-2.17,2.08-2.99,2.73-.3,.24-.57,.44-.78,.6-.21-.16-.48-.36-.78-.6-.82-.65-1.91-1.59-2.99-2.73-2.21-2.33-4.23-5.34-4.23-8.44,0-2.12,.84-4.16,2.34-5.66s3.53-2.34,5.66-2.34,4.16,.84,5.66,2.34,2.34,3.54,2.34,5.66c0,3.1-2.02,6.1-4.23,8.44Z"/><path class="cls-1" d="M582,6c-2.21,0-4,1.79-4,4s1.79,4,4,4,4-1.79,4-4-1.79-4-4-4Zm0,6c-1.1,0-2-.9-2-2s.9-2,2-2,2,.9,2,2-.9,2-2,2Z"/></g><g><path class="cls-1" d="M308.05,17.5h0s-8.47-14.15-8.47-14.15h0c-.27-.45-.64-.81-1.09-1.06-.45-.25-.96-.39-1.47-.39s-1.02,.13-1.47,.39c-.45,.25-.83,.62-1.09,1.06l.86,.52-.86-.51-8.47,14.14h0c-.26,.47-.4,.98-.4,1.51,0,.52,.13,1.04,.39,1.49,.26,.46,.63,.83,1.08,1.1,.45,.27,.96,.41,1.49,.41h16.95s.01,0,.01,0c.52,0,1.04-.15,1.49-.41,.45-.27,.83-.64,1.09-1.1,.26-.46,.4-.97,.39-1.49,0-.52-.14-1.04-.4-1.49Zm-1.73,2c-.09,.15-.21,.28-.36,.37-.15,.09-.32,.14-.49,.14h-16.93c-.17,0-.34-.05-.49-.14-.15-.09-.28-.22-.36-.37-.09-.15-.13-.32-.13-.5s.05-.34,.13-.49l8.46-14.13c.09-.15,.21-.27,.36-.35,.15-.08,.32-.13,.49-.13s.34,.04,.49,.13c.15,.08,.27,.2,.36,.35,0,0,0,0,0,0l8.46,14.13c.09,.15,.13,.32,.13,.49,0,.17-.04,.35-.13,.5Z"/><path class="cls-1" d="M297,8c-.55,0-1,.45-1,1v4c0,.55,.45,1,1,1s1-.45,1-1v-4c0-.55-.45-1-1-1Z"/><path class="cls-1" d="M297,15c-.55,0-1,.45-1,1v.5c0,.55,.45,1,1,1s1-.45,1-1v-.5c0-.55-.45-1-1-1Z"/></g><g><circle class="cls-2" cx="484" cy="21" r="2"/><circle class="cls-2" cx="495" cy="21" r="2"/><path class="cls-1" d="M498.77,5.36c-.19-.23-.47-.36-.77-.36h-16.18l-.84-4.2c-.09-.47-.5-.8-.98-.8h-4c-.55,0-1,.45-1,1s.45,1,1,1h3.18l.83,4.16s.01,.06,.02,.08l1.67,8.35c.14,.69,.51,1.31,1.06,1.75,.55,.44,1.23,.67,1.93,.66h9.7c.7,.01,1.38-.22,1.93-.66,.55-.44,.92-1.06,1.06-1.75l1.6-8.4c.06-.29-.02-.6-.21-.82Zm-3.35,8.84c-.05,.23-.17,.43-.35,.58-.18,.15-.41,.23-.65,.22h-.02s-9.72,0-9.72,0h-.02c-.23,0-.46-.07-.65-.22-.18-.15-.31-.35-.35-.58l-1.44-7.2h14.57l-1.37,7.2Z"/></g><path class="cls-1" d="M402.95,8.96c-.12-.36-.43-.63-.81-.68l-6.39-.93-2.86-5.79c-.17-.34-.52-.56-.9-.56s-.73,.22-.9,.56l-2.86,5.79-6.39,.93c-.38,.05-.69,.32-.81,.68-.12,.36-.02,.76,.25,1.02l4.62,4.5-1.09,6.36c-.06,.38,.09,.75,.4,.98,.31,.22,.72,.25,1.05,.08l5.71-3.01,5.72,3.01c.34,.18,.74,.15,1.05-.08,.31-.22,.46-.6,.4-.98l-1.09-6.36,4.62-4.5c.27-.27,.37-.66,.25-1.02Zm-6.65,4.46c-.24,.23-.34,.56-.29,.89l.84,4.88-4.39-2.31c-.29-.15-.64-.15-.93,0l-4.39,2.31,.84-4.88c.05-.32-.05-.66-.29-.89l-3.55-3.46,4.91-.72c.33-.05,.61-.25,.75-.55l2.19-4.44,2.19,4.44c.15,.29,.43,.5,.75,.55l4.91,.72-3.55,3.46Z"/><g><path class="cls-1" d="M211.57,104.18s0,0,0,0c0,0-.03-.02-.05-.04-.05-.04-.14-.12-.25-.24-.22-.24-.55-.64-.88-1.24-.66-1.21-1.38-3.29-1.38-6.65,0-1.86-.74-3.64-2.05-4.95-1.31-1.31-3.09-2.05-4.95-2.05s-3.64,.74-4.95,2.05c-1.31,1.31-2.05,3.09-2.05,4.95,0,3.35-.72,5.43-1.38,6.65-.33,.61-.66,1.01-.88,1.24-.11,.12-.2,.2-.25,.24-.03,.02-.04,.04-.05,.04,0,0,0,0,0,0-.36,.25-.52,.7-.39,1.11,.13,.42,.52,.71,.96,.71h18c.44,0,.83-.29,.96-.71,.13-.42-.03-.87-.39-1.11Zm-16.42-.18c.08-.12,.15-.26,.23-.4,.84-1.54,1.62-3.96,1.62-7.6,0-1.33,.53-2.6,1.47-3.54,.94-.94,2.21-1.46,3.53-1.46s2.6,.53,3.54,1.46c.94,.94,1.46,2.21,1.46,3.54,0,3.65,.78,6.07,1.62,7.6,.08,.14,.15,.27,.23,.4h-13.7Z"/><path class="cls-1" d="M204.23,108.14c-.48-.28-1.09-.12-1.37,.36-.09,.15-.21,.28-.37,.36-.15,.09-.32,.13-.5,.13s-.35-.05-.5-.13c-.15-.09-.28-.21-.37-.36-.28-.48-.89-.64-1.37-.36-.48,.28-.64,.89-.36,1.37,.26,.45,.64,.83,1.1,1.09,.46,.26,.97,.4,1.5,.4s1.04-.14,1.5-.4c.46-.26,.83-.64,1.1-1.09,.28-.48,.11-1.09-.36-1.37Z"/></g><g><path class="cls-1" d="M212,10.08c-.55,0-1,.45-1,1v.92c0,1.94-.63,3.83-1.79,5.38s-2.79,2.69-4.66,3.24-3.85,.48-5.67-.19c-1.82-.67-3.38-1.92-4.43-3.54-1.06-1.63-1.56-3.55-1.43-5.49,.13-1.94,.88-3.78,2.14-5.26,1.26-1.48,2.97-2.5,4.86-2.93,1.89-.43,3.87-.23,5.65,.56,.5,.22,1.1,0,1.32-.51,.22-.5,0-1.1-.51-1.32-2.17-.97-4.59-1.2-6.9-.68-2.31,.52-4.4,1.78-5.94,3.58-1.54,1.8-2.46,4.06-2.61,6.42-.16,2.37,.46,4.72,1.75,6.71,1.29,1.99,3.19,3.51,5.42,4.33,2.23,.82,4.66,.9,6.93,.23,2.27-.67,4.27-2.06,5.69-3.96,1.42-1.9,2.19-4.21,2.19-6.58v-.92c0-.55-.45-1-1-1Z"/><path class="cls-1" d="M199.71,10.3c-.39-.39-1.02-.39-1.41,0-.39,.39-.39,1.02,0,1.41l3,3c.19,.19,.44,.29,.71,.29,.27,0,.52-.11,.71-.29l10-10.01c.39-.39,.39-1.02,0-1.41-.39-.39-1.02-.39-1.41,0l-9.29,9.3-2.29-2.29Z"/></g><g><path class="cls-1" d="M20,100c-.55,0-1,.45-1,1v7c0,.27-.11,.52-.29,.71-.19,.19-.44,.29-.71,.29H4c-.27,0-.52-.11-.71-.29-.19-.19-.29-.44-.29-.71v-14c0-.27,.11-.52,.29-.71,.19-.19,.44-.29,.71-.29h7c.55,0,1-.45,1-1s-.45-1-1-1H4c-.8,0-1.56,.32-2.12,.88-.56,.56-.88,1.33-.88,2.12v14c0,.8,.32,1.56,.88,2.12,.56,.56,1.33,.88,2.12,.88h14c.8,0,1.56-.32,2.12-.88,.56-.56,.88-1.33,.88-2.12v-7c0-.55-.45-1-1-1Z"/><path class="cls-1" d="M22.21,89.79c-.59-.59-1.38-.91-2.21-.91s-1.62,.33-2.21,.91l-9.5,9.5c-.13,.13-.22,.29-.26,.46l-1,4c-.09,.34,.01,.7,.26,.95,.25,.25,.61,.35,.95,.26l4-1c.18-.04,.34-.14,.46-.26l9.5-9.5c.59-.59,.91-1.38,.91-2.21s-.33-1.62-.91-2.21Zm-1.41,3l-9.3,9.3-2.11,.53,.53-2.11,9.3-9.3c.21-.21,.5-.33,.79-.33s.58,.12,.79,.33,.33,.5,.33,.79-.12,.58-.33,.79Z"/></g><path class="cls-1" d="M686.91,90.58c-.16-.35-.52-.58-.91-.58h-20c-.39,0-.74,.23-.91,.58-.16,.35-.11,.77,.14,1.07l7.76,9.18v6.17c0,.38,.21,.72,.55,.89l4,2c.31,.16,.68,.14,.97-.04,.29-.18,.47-.5,.47-.85v-8.17l7.76-9.18c.25-.3,.31-.71,.14-1.07Zm-9.67,9.24c-.15,.18-.24,.41-.24,.65v6.92l-2-1v-5.92c0-.24-.08-.47-.24-.65l-6.61-7.81h15.69l-6.61,7.81Z"/><g><path class="cls-1" d="M103.5,99c1.38,0,2.5-1.12,2.5-2.5s-1.12-2.5-2.5-2.5-2.5,1.12-2.5,2.5,1.12,2.5,2.5,2.5Zm0-3c.28,0,.5,.22,.5,.5s-.22,.5-.5,.5-.5-.22-.5-.5,.22-.5,.5-.5Z"/><path class="cls-1" d="M117,103v-10c0-1.66-1.34-3-3-3h-14c-1.66,0-3,1.34-3,3v14c0,1.66,1.34,3,3,3,0,0,0,0,0,0h14c1.66,0,3-1.34,3-3v-4s0,0,0,0Zm-18-10c0-.55,.45-1,1-1h14c.55,0,1,.45,1,1v7.59l-3.29-3.29c-.39-.39-1.02-.39-1.41,0l-10.64,10.64c-.38-.14-.66-.5-.66-.93v-14Zm15,15h-11.59l8.59-8.59,4,4v3.59c0,.55-.45,1-1,1Z"/></g><path class="cls-1" d="M592.9,99.58s0-.02,0-.03l-3.45-6.89s0,0,0,0c-.25-.5-.63-.92-1.1-1.21-.47-.29-1.02-.45-1.58-.45h-9.52c-.56,0-1.11,.16-1.58,.45-.47,.29-.86,.71-1.1,1.21,0,0,0,0,0,0l-3.45,6.89s0,.02,0,.03c-.06,.13-.1,.27-.1,.42v6c0,.8,.32,1.56,.88,2.12,.56,.56,1.32,.88,2.12,.88h16c.8,0,1.56-.32,2.12-.88,.56-.56,.88-1.33,.88-2.12v-6c0-.15-.04-.29-.1-.42Zm-16.56-6.02l-.89-.45,.9,.45c.08-.17,.21-.31,.37-.4,.16-.1,.34-.15,.53-.15h9.52c.19,0,.37,.05,.53,.15,.16,.1,.29,.24,.37,.4h0s2.73,5.45,2.73,5.45h-4.38c-.33,0-.65,.17-.83,.45l-1.7,2.55h-2.93l-1.7-2.55c-.18-.28-.5-.45-.83-.45h-4.38l2.73-5.44Zm14.36,13.15c-.19,.19-.44,.29-.71,.29h-16c-.27,0-.52-.11-.71-.29-.19-.19-.29-.44-.29-.71v-5h4.47l1.7,2.55c.18,.28,.5,.45,.83,.45h4c.33,0,.65-.17,.83-.45l1.7-2.55h4.47v5c0,.27-.1,.52-.29,.71Z"/><g><path class="cls-1" d="M308.81,100.52c-.33-1.29-1.08-2.44-2.13-3.26-1.05-.82-2.35-1.26-3.68-1.26h-.52c-.36-1.03-.92-1.99-1.63-2.83-.88-1.04-1.99-1.86-3.23-2.41-1.24-.55-2.6-.81-3.96-.76-1.36,.05-2.69,.41-3.89,1.05-1.2,.64-2.24,1.54-3.05,2.64-.8,1.1-1.34,2.36-1.59,3.7-.24,1.34-.18,2.72,.19,4.03,.37,1.31,1.02,2.52,1.93,3.54,.36,.41,1,.45,1.41,.09,.41-.37,.45-1,.09-1.41-.7-.79-1.21-1.73-1.5-2.75-.28-1.02-.33-2.09-.15-3.13,.19-1.04,.61-2.03,1.24-2.88,.62-.85,1.43-1.56,2.37-2.05,.93-.5,1.97-.77,3.03-.81,1.06-.04,2.11,.16,3.08,.59,.97,.43,1.83,1.07,2.51,1.87,.68,.81,1.18,1.76,1.44,2.78,.11,.44,.51,.75,.97,.75h1.26c.89,0,1.75,.3,2.45,.84,.7,.55,1.2,1.31,1.42,2.17,.22,.86,.15,1.77-.21,2.59-.35,.81-.97,1.49-1.75,1.91-.48,.26-.66,.87-.4,1.36,.26,.48,.87,.66,1.36,.4,1.17-.64,2.09-1.65,2.63-2.87,.53-1.22,.64-2.59,.32-3.88Z"/><path class="cls-1" d="M297.71,99.29c-.09-.09-.2-.17-.32-.22-.12-.05-.25-.08-.38-.08h0s0,0,0,0c-.13,0-.26,.03-.38,.08-.12,.05-.23,.12-.32,.22l-4,4c-.39,.39-.39,1.02,0,1.41,.39,.39,1.02,.39,1.41,0l2.29-2.29v6.59c0,.55,.45,1,1,1s1-.45,1-1v-6.59l2.29,2.29c.39,.39,1.02,.39,1.41,0,.39-.39,.39-1.02,0-1.41l-4-4Z"/></g><path class="cls-1" d="M116.91,185.58c-.16-.35-.52-.58-.91-.58h-7.87l.86-6.88c.05-.44-.19-.86-.59-1.04s-.88-.06-1.17,.28l-10,12c-.25,.3-.3,.71-.14,1.06,.17,.35,.52,.58,.91,.58h7.87l-.86,6.88c-.05,.44,.19,.86,.59,1.04,.41,.18,.88,.06,1.17-.28l10-12c.25-.3,.3-.71,.14-1.06Zm-9.49,9.16l.58-4.62c.04-.28-.05-.57-.24-.79-.19-.22-.46-.34-.75-.34h-6.86l6.45-7.74-.58,4.61c-.04,.29,.05,.57,.24,.79,.19,.22,.46,.34,.75,.34h6.86l-6.45,7.74Z"/><g><path class="cls-1" d="M589.54,191.46c-.94-.94-2.21-1.46-3.54-1.46h-8c-1.33,0-2.6,.53-3.54,1.46-.94,.94-1.46,2.21-1.46,3.54v2c0,.55,.45,1,1,1s1-.45,1-1v-2c0-.8,.32-1.56,.88-2.12,.56-.56,1.32-.88,2.12-.88h8c.8,0,1.56,.32,2.12,.88,.56,.56,.88,1.33,.88,2.12v2c0,.55,.45,1,1,1s1-.45,1-1v-2c0-1.33-.53-2.6-1.46-3.54Z"/><path class="cls-1" d="M582,188c2.76,0,5-2.24,5-5s-2.24-5-5-5-5,2.24-5,5,2.24,5,5,5Zm0-8c1.66,0,3,1.34,3,3s-1.34,3-3,3-3-1.34-3-3,1.34-3,3-3Z"/></g><g><path class="cls-1" d="M678,190h-8c-1.33,0-2.6,.53-3.54,1.46-.94,.94-1.46,2.21-1.46,3.54v2c0,.55,.45,1,1,1s1-.45,1-1v-2c0-.8,.32-1.56,.88-2.12,.56-.56,1.32-.88,2.12-.88h8c.8,0,1.56,.32,2.12,.88,.56,.56,.88,1.33,.88,2.12v2c0,.55,.45,1,1,1s1-.45,1-1v-2c0-1.33-.53-2.6-1.46-3.54-.94-.94-2.21-1.46-3.54-1.46Z"/><path class="cls-1" d="M674,188c2.76,0,5-2.24,5-5s-2.24-5-5-5-5,2.24-5,5,2.24,5,5,5Zm0-8c1.66,0,3,1.34,3,3s-1.34,3-3,3-3-1.34-3-3,1.34-3,3-3Z"/><path class="cls-1" d="M687.95,191.94c-.68-.88-1.63-1.5-2.7-1.78-.53-.14-1.08,.18-1.22,.72-.14,.53,.18,1.08,.72,1.22,.64,.17,1.21,.54,1.62,1.07,.41,.53,.63,1.17,.63,1.84v2c0,.55,.45,1,1,1s1-.45,1-1v-2c0-1.11-.37-2.18-1.05-3.06Z"/><path class="cls-1" d="M683.96,179.94c-.68-.88-1.63-1.5-2.71-1.78-.53-.14-1.08,.19-1.22,.72-.14,.53,.19,1.08,.72,1.22,.65,.16,1.22,.54,1.63,1.07,.41,.53,.63,1.17,.63,1.84s-.22,1.31-.63,1.84c-.41,.53-.98,.9-1.63,1.07-.54,.14-.86,.68-.72,1.22,.14,.53,.68,.86,1.22,.72,1.08-.28,2.03-.9,2.71-1.78,.68-.88,1.05-1.96,1.05-3.07s-.37-2.19-1.05-3.07Z"/></g><path class="cls-1" d="M203.41,276l5.29-5.29c.39-.39,.39-1.02,0-1.41-.39-.39-1.02-.39-1.41,0l-5.29,5.29-5.29-5.29c-.39-.39-1.02-.39-1.41,0-.39,.39-.39,1.02,0,1.41l5.29,5.29-5.29,5.29c-.39,.39-.39,1.02,0,1.41,.39,.39,1.02,.39,1.41,0l5.29-5.29,5.29,5.29c.39,.39,1.02,.39,1.41,0,.39-.39,.39-1.02,0-1.41l-5.29-5.29Z"/><path class="cls-1" d="M496.71,196.29l-3.68-3.68c1.23-1.54,1.97-3.49,1.97-5.61,0-4.97-4.03-9-9-9s-9,4.03-9,9,4.03,9,9,9c2.13,0,4.07-.74,5.61-1.97l3.68,3.68c.39,.39,1.02,.39,1.41,0,.39-.39,.39-1.02,0-1.41Zm-17.71-9.29c0-3.87,3.13-7,7-7s7,3.13,7,7c0,1.92-.77,3.66-2.02,4.92,0,0-.02,.01-.03,.02,0,0-.01,.02-.02,.03-1.26,1.25-3,2.02-4.92,2.02-3.87,0-7-3.13-7-7Z"/><g><path class="cls-1" d="M12,270c-3.31,0-6,2.69-6,6s2.69,6,6,6,6-2.69,6-6-2.69-6-6-6Zm0,10c-2.21,0-4-1.79-4-4s1.79-4,4-4,4,1.79,4,4-1.79,4-4,4Z"/><path class="cls-1" d="M12,268c.55,0,1-.45,1-1v-2c0-.55-.45-1-1-1s-1,.45-1,1v2c0,.55,.45,1,1,1Z"/><path class="cls-1" d="M12,284c-.55,0-1,.45-1,1v2c0,.55,.45,1,1,1s1-.45,1-1v-2c0-.55-.45-1-1-1Z"/><path class="cls-1" d="M4.93,270.35c.39,.39,1.02,.39,1.41,0,.39-.39,.39-1.02,0-1.41l-1.42-1.42c-.39-.39-1.02-.39-1.41,0-.39,.39-.39,1.02,0,1.41l1.42,1.42Z"/><path class="cls-1" d="M19.07,281.65c-.39-.39-1.02-.39-1.41,0-.39,.39-.39,1.02,0,1.41l1.42,1.42c.39,.39,1.02,.39,1.41,0,.39-.39,.39-1.02,0-1.41l-1.42-1.42Z"/><path class="cls-1" d="M4,276c0-.55-.45-1-1-1H1c-.55,0-1,.45-1,1s.45,1,1,1H3c.55,0,1-.45,1-1Z"/><path class="cls-1" d="M23,275h-2c-.55,0-1,.45-1,1s.45,1,1,1h2c.55,0,1-.45,1-1s-.45-1-1-1Z"/><path class="cls-1" d="M4.93,281.65l-1.42,1.42c-.39,.39-.39,1.02,0,1.41,.39,.39,1.02,.39,1.41,0l1.42-1.42c.39-.39,.39-1.02,0-1.41-.39-.39-1.02-.39-1.41,0Z"/><path class="cls-1" d="M19.07,270.35l1.42-1.42c.39-.39,.39-1.02,0-1.41-.39-.39-1.02-.39-1.41,0l-1.42,1.42c-.39,.39-.39,1.02,0,1.41,.39,.39,1.02,.39,1.41,0Z"/></g><path class="cls-1" d="M116,276.79l-.59-.8c-1.16,.85-2.58,1.27-4.01,1.16s-2.78-.72-3.8-1.74c-1.02-1.02-1.63-2.36-1.74-3.8s.3-2.86,1.16-4.01c.23-.32,.26-.74,.07-1.09-.19-.34-.57-.54-.96-.51-1.89,.17-3.69,.89-5.2,2.05-1.5,1.16-2.64,2.73-3.29,4.51-.65,1.79-.77,3.72-.35,5.57,.41,1.85,1.35,3.55,2.69,4.89s3.04,2.28,4.9,2.69c1.85,.41,3.79,.29,5.57-.35,1.79-.65,3.35-1.79,4.51-3.29,1.16-1.5,1.87-3.3,2.05-5.2l-1-.09Zm-2.63,4.07c-.93,1.2-2.18,2.11-3.61,2.63-1.43,.52-2.98,.62-4.46,.28-1.48-.33-2.84-1.08-3.92-2.15-1.07-1.07-1.82-2.43-2.15-3.92-.33-1.48-.23-3.03,.28-4.46,.52-1.43,1.43-2.68,2.63-3.61,.66-.51,1.39-.91,2.17-1.19-.38,1.05-.54,2.18-.45,3.32,.14,1.91,.97,3.71,2.32,5.06s3.15,2.18,5.06,2.32c1.13,.08,2.26-.07,3.32-.46-.28,.78-.68,1.51-1.19,2.17Z"/><path class="cls-1" d="M305.71,272.29c-.39-.39-1.02-.39-1.41,0l-7.29,7.29-7.29-7.29c-.39-.39-1.02-.39-1.41,0-.39,.39-.39,1.02,0,1.41l8,8c.39,.39,1.02,.39,1.41,0l8-8c.39-.39,.39-1.02,0-1.41Z"/><g><path class="cls-1" d="M401,275h-18c-.55,0-1,.45-1,1s.45,1,1,1h18c.55,0,1-.45,1-1s-.45-1-1-1Z"/><path class="cls-1" d="M383,271h18c.55,0,1-.45,1-1s-.45-1-1-1h-18c-.55,0-1,.45-1,1s.45,1,1,1Z"/><path class="cls-1" d="M401,281h-18c-.55,0-1,.45-1,1s.45,1,1,1h18c.55,0,1-.45,1-1s-.45-1-1-1Z"/></g><path class="cls-3" d="M495.71,269.29c.39,.39,.39,1.02,0,1.41l-11,11c-.39,.39-1.02,.39-1.41,0l-5-5c-.39-.39-.39-1.02,0-1.41,.39-.39,1.02-.39,1.41,0l4.29,4.29,10.29-10.29c.39-.39,1.02-.39,1.41,0Z"/><path class="cls-1" d="M684,3h-2v-1c0-.55-.45-1-1-1s-1,.45-1,1v1h-6v-1c0-.55-.45-1-1-1s-1,.45-1,1v1h-2c-1.66,0-3,1.34-3,3v14c0,1.66,1.34,3,3,3h14c1.66,0,3-1.34,3-3V6c0-1.66-1.34-3-3-3Zm-14,2h2v1c0,.55,.45,1,1,1s1-.45,1-1v-1h6v1c0,.55,.45,1,1,1s1-.45,1-1v-1h2c.55,0,1,.45,1,1v3h-16v-3c0-.55,.45-1,1-1Zm14,16h-14c-.55,0-1-.45-1-1V11h16v9c0,.55-.45,1-1,1Z"/><g><path class="cls-1" d="M401,102c-.55,0-1,.45-1,1v4c0,.27-.1,.52-.29,.71-.19,.19-.44,.29-.71,.29h-14c-.27,0-.52-.11-.71-.29-.19-.19-.29-.44-.29-.71v-4c0-.55-.45-1-1-1s-1,.45-1,1v4c0,.8,.32,1.56,.88,2.12,.56,.56,1.33,.88,2.12,.88h14c.8,0,1.56-.32,2.12-.88,.56-.56,.88-1.33,.88-2.12v-4c0-.55-.45-1-1-1Z"/><path class="cls-1" d="M391.29,103.71c.09,.09,.2,.16,.32,.22,.24,.1,.52,.1,.77,0,.12-.05,.23-.12,.32-.22l5-5c.39-.39,.39-1.02,0-1.41-.39-.39-1.02-.39-1.41,0l-3.29,3.29v-9.59c0-.55-.45-1-1-1s-1,.45-1,1v9.59l-3.29-3.29c-.39-.39-1.02-.39-1.41,0-.39,.39-.39,1.02,0,1.41l5,5Z"/></g><path class="cls-1" d="M208,191c-1.11,0-2.11,.45-2.84,1.18l-5.33-3.1c.1-.35,.17-.7,.17-1.08s-.07-.73-.17-1.08l5.33-3.11c.72,.73,1.73,1.19,2.84,1.19,2.21,0,4-1.79,4-4s-1.79-4-4-4-4,1.79-4,4c0,.38,.07,.73,.17,1.08l-5.33,3.11c-.72-.73-1.73-1.19-2.84-1.19-2.21,0-4,1.79-4,4s1.79,4,4,4c1.11,0,2.12-.45,2.84-1.19l5.33,3.1c-.1,.35-.17,.7-.17,1.08,0,2.21,1.79,4,4,4s4-1.79,4-4-1.79-4-4-4Zm0-12c1.1,0,2,.9,2,2s-.9,2-2,2-2-.9-2-2,.9-2,2-2Zm-12,11c-1.1,0-2-.9-2-2s.9-2,2-2,2,.9,2,2-.9,2-2,2Zm12,7c-1.1,0-2-.9-2-2,0-.36,.1-.7,.27-1,0,0,0,0,0-.01,0,0,0-.01,0-.02,.35-.58,.98-.98,1.71-.98,1.1,0,2,.9,2,2s-.9,2-2,2Z"/><path class="cls-1" d="M21.61,8.21L12.61,1.21c-.36-.28-.87-.28-1.23,0L2.39,8.21c-.24,.19-.39,.48-.39,.79v11c0,.8,.32,1.56,.88,2.12,.56,.56,1.33,.88,2.12,.88h14c.8,0,1.56-.32,2.12-.88,.56-.56,.88-1.33,.88-2.12V9c0-.31-.14-.6-.39-.79Zm-7.61,12.79h-4V13h4v8Zm6-1c0,.27-.11,.52-.29,.71s-.44,.29-.71,.29h-3V12c0-.55-.45-1-1-1h-6c-.55,0-1,.45-1,1v9h-3c-.27,0-.52-.11-.71-.29-.19-.19-.29-.44-.29-.71V9.49L12,3.27l8,6.22v10.51Z"/></svg>